<?xml version="1.0" encoding="UTF-8" standalone="no"?>
<!DOCTYPE svg PUBLIC "-//W3C//DTD SVG 1.1//EN" "http://www.w3.org/Graphics/SVG/1.1/DTD/svg11.dtd">
<svg height="100%" stroke-miterlimit="10" style="fill-rule:nonzero;clip-rule:evenodd;stroke-linecap:round;stroke-linejoin:round;" version="1.1" viewBox="0 0 24 24" width="100%" xml:space="preserve" xmlns="http://www.w3.org/2000/svg" xmlns:xlink="http://www.w3.org/1999/xlink">
<defs/>
<g id="Без-названия">
<path d="M22.048 16.718C22.2732 16.2125 22.1606 15.5947 21.7103 15.2577C21.3163 14.9207 20.697 14.9207 20.2467 15.2577C19.1209 16.1564 17.7699 16.6057 16.3626 16.6057C12.9288 16.6057 10.1142 13.7973 10.1142 10.3712C10.1142 7.28197 12.4222 4.64213 15.5182 4.19279C16.0811 4.13662 16.4752 3.68729 16.5315 3.12562C16.5315 2.56395 16.1937 2.05844 15.6871 1.88994C14.6176 1.55294 13.548 1.38444 12.4785 1.38444C6.62416 1.38444 1.83937 6.15863 1.83937 12C1.83937 17.8414 6.62416 22.6156 12.3659 22.6156C16.4752 22.6156 20.1341 20.3127 22.048 16.718ZM7.6937 10.315C7.6937 15.033 11.5778 18.9085 16.3063 18.9085C16.5315 18.9085 16.7566 18.9085 16.9818 18.9085C15.6871 19.8072 14.1109 20.2565 12.4785 20.2565C7.91886 20.2565 4.20362 16.5495 4.20362 12C4.20362 8.12448 6.90561 4.81063 10.5646 3.96812C8.70694 5.5408 7.58111 7.84364 7.6937 10.315Z" fill-rule="nonzero" opacity="1" stroke="none"/>
</g>
</svg>
