<svg width="30" height="30" viewBox="0 0 30 30" xmlns="http://www.w3.org/2000/svg">
<path fill-rule="evenodd" clip-rule="evenodd" d="M11 4C12.6568 4 14 5.34315 14 7V11C14 12.6568 12.6568 14 11 14H7C5.34315 14 4 12.6568 4 11V7C4 5.34315 5.34315 4 7 4H11ZM11 6C11.5523 6 12 6.44772 12 7V11C12 11.5523 11.5523 12 11 12H7C6.44772 12 6 11.5523 6 11V7C6 6.44772 6.44772 6 7 6H11Z" />
<path fill-rule="evenodd" clip-rule="evenodd" d="M11 16C12.6568 16 14 17.3431 14 19V23C14 24.6569 12.6568 26 11 26H7C5.34315 26 4 24.6569 4 23V19C4 17.3431 5.34315 16 7 16H11ZM11 18C11.5523 18 12 18.4477 12 19V23C12 23.5523 11.5523 24 11 24H7C6.44772 24 6 23.5523 6 23V19C6 18.4477 6.44772 18 7 18H11Z" />
<path fill-rule="evenodd" clip-rule="evenodd" d="M26 7C26 5.34315 24.6569 4 23 4H19C17.3431 4 16 5.34315 16 7V11C16 12.6568 17.3431 14 19 14H23C24.6569 14 26 12.6568 26 11V7ZM24 7C24 6.44772 23.5523 6 23 6H19C18.4477 6 18 6.44772 18 7V11C18 11.5523 18.4477 12 19 12H23C23.5523 12 24 11.5523 24 11V7Z" />
<path fill-rule="evenodd" clip-rule="evenodd" d="M23 16C24.6569 16 26 17.3431 26 19V23C26 24.6569 24.6569 26 23 26H19C17.3431 26 16 24.6569 16 23V19C16 17.3431 17.3431 16 19 16H23ZM23 18C23.5523 18 24 18.4477 24 19V23C24 23.5523 23.5523 24 23 24H19C18.4477 24 18 23.5523 18 23V19C18 18.4477 18.4477 18 19 18H23Z" />
</svg>
