<svg width="30" height="30" viewBox="0 0 30 30" xmlns="http://www.w3.org/2000/svg">
<path d="M26.9951 6.91586C26.9951 7.5512 26.4779 8.06834 25.8426 8.06834H9.98379C9.34845 8.06834 8.83132 7.5512 8.83132 6.91586C8.83132 6.28053 9.34845 5.76339 9.98379 5.76339H25.8475C26.4829 5.76832 26.9951 6.28053 26.9951 6.91586ZM25.8475 11.4765H9.98379C9.34845 11.4765 8.83132 11.9936 8.83132 12.629C8.83132 13.2643 9.34845 13.7814 9.98379 13.7814H25.8475C26.4829 13.7814 27 13.2643 27 12.629C26.9951 11.9936 26.4829 11.4765 25.8475 11.4765ZM25.8475 17.1896H9.98379C9.34845 17.1896 8.83132 17.7068 8.83132 18.3421C8.83132 18.9774 9.34845 19.4946 9.98379 19.4946H25.8475C26.4829 19.4946 27 18.9774 27 18.3421C26.9951 17.7068 26.4829 17.1896 25.8475 17.1896ZM25.8475 22.9027H9.98379C9.34845 22.9027 8.83132 23.4199 8.83132 24.0552C8.83132 24.6905 9.34845 25.2077 9.98379 25.2077H25.8475C26.4829 25.2077 27 24.6905 27 24.0552C26.9951 23.4199 26.4829 22.9027 25.8475 22.9027ZM4.91586 5C3.85697 5 3 5.85697 3 6.91586C3 7.97476 3.85697 8.83665 4.91586 8.83665C5.97476 8.83665 6.83173 7.97476 6.83173 6.91586C6.83173 5.85697 5.97476 5 4.91586 5ZM4.91586 10.7131C3.85697 10.7131 3 11.5701 3 12.629C3 13.6879 3.85697 14.5448 4.91586 14.5448C5.97476 14.5448 6.83173 13.6879 6.83173 12.629C6.83173 11.5701 5.97476 10.7131 4.91586 10.7131ZM4.91586 16.4262C3.85697 16.4262 3 17.2832 3 18.3421C3 19.401 3.85697 20.258 4.91586 20.258C5.97476 20.258 6.83173 19.401 6.83173 18.3421C6.83173 17.2832 5.97476 16.4262 4.91586 16.4262ZM4.91586 22.1344C3.85697 22.1344 3 22.9914 3 24.0503C3 25.1092 3.85697 25.9661 4.91586 25.9661C5.97476 25.9661 6.83173 25.1092 6.83173 24.0503C6.83173 22.9963 5.97476 22.1344 4.91586 22.1344Z" />
</svg>
